<?xml version="1.0" encoding="utf-8"?>
<!-- Generator: Adobe Illustrator 26.0.3, SVG Export Plug-In . SVG Version: 6.00 Build 0)  -->
<svg version="1.1" id="Layer_1" xmlns="http://www.w3.org/2000/svg" xmlns:xlink="http://www.w3.org/1999/xlink" x="0px" y="0px"
	 viewBox="0 0 640 480" style="enable-background:new 0 0 640 480;" xml:space="preserve">
<style type="text/css">
	.st0{fill:#FFFFFF;}
	.st1{fill:#2B2B2B;}
</style>
<g>
	<path class="st0" d="M540,443.5c-140.4,0-280.7,0-421,0c0-137.9,0-275.7,0-413.5c140.4,0,280.7,0,421,0
		C540,167.9,540,305.7,540,443.5z M443.9,391.2c-1.7,0.7-3.4,1.4-5,2.2c-43.3,21-89.2,25.9-136.1,19.9
		c-71.5-9.2-130.4-63.6-146.9-133.8c-1.2-4.9-1.7-10-1.8-15.1c-0.1-4.6,2.8-7.8,7.2-8.9c3.7-0.9,7.6-1.4,11.4-1.5
		c20.2-0.2,40.3-0.2,60.5-0.2c8.8,0,11.9,2.3,14.9,10.6c1.9,5.1,3.7,10.3,6.2,15.1c16.2,30.9,48.3,45.6,82.7,42.8
		c33.6-2.8,61.8-26.6,71.6-59.5c2.3-7.9,3.8-9,12.2-9c36.7,0,73.4,0,110.1,0c1.4,0,2.9,0,4.5,0c0.3-3.8,0.9-7.2,0.8-10.5
		c-0.3-9.3-0.2-18.7-1.3-27.9c-7.9-65.7-42.8-114-97.6-148.6c-33.2-21-70.4-28.5-109.4-27.9c-23.9,0.4-47.4,2.7-69.3,13.5
		c-17,8.3-32.1,19.3-46.4,31.7c-0.6,0.5-1,1.1-1.6,1.7c1.5,0.3,2.6,0,3.7-0.5c3.3-1.5,6.4-3.2,9.7-4.7c43-19,88-22.6,133.8-15.5
		c71,11.1,128.9,67.2,143.4,137.5c3,14.5-1.4,20-16.3,20.1c-22,0.1-44,0.1-66.1,0.2c-6.1,0-8-1.3-9.9-7c-0.4-1.2-0.7-2.4-1.1-3.6
		c-7.7-22.2-21.8-38.8-42.7-49.6c-38.9-19.9-99.7-6.9-117.8,50.5c-2.6,8.3-4.5,9.6-12.7,9.6c-27.6-0.1-55.2-0.1-82.9-0.2
		c-10.3,0-20.6,0-31.3,0c-0.3,2.6-0.9,4.9-0.8,7.2c0.4,10.4,0.4,20.9,1.5,31.3c6.9,60.7,36.4,108.1,86.5,142.6
		c26.6,18.3,56.6,28.1,88.3,33.3c42.5,6.9,82.5,0.5,119.2-22.8C425.5,407.8,435.3,400.4,443.9,391.2z"/>
	<path class="st1" d="M443.9,391.2c-8.6,9.1-18.3,16.6-28.7,23.1c-36.7,23.2-76.7,29.7-119.2,22.8c-31.7-5.1-61.7-15-88.3-33.3
		c-50.1-34.5-79.6-81.8-86.5-142.6c-1.2-10.4-1.2-20.8-1.5-31.3c-0.1-2.3,0.5-4.6,0.8-7.2c10.7,0,21,0,31.3,0
		c27.6,0,55.2,0.1,82.9,0.2c8.2,0,10.1-1.3,12.7-9.6c18.1-57.4,78.9-70.4,117.8-50.5c21,10.7,35,27.4,42.7,49.6
		c0.4,1.2,0.7,2.4,1.1,3.6c1.9,5.7,3.7,7,9.9,7c22,0,44-0.1,66.1-0.2c14.9-0.1,19.3-5.6,16.3-20.1
		c-14.5-70.3-72.4-126.5-143.4-137.5C312,58,267,61.6,224,80.6c-3.3,1.5-6.5,3.2-9.7,4.7c-1,0.5-2.2,0.8-3.7,0.5
		c0.5-0.6,1-1.2,1.6-1.7c14.2-12.4,29.4-23.4,46.4-31.7c21.9-10.7,45.4-13.1,69.3-13.5c39-0.6,76.2,6.9,109.4,27.9
		c54.8,34.7,89.7,83,97.6,148.6c1.1,9.2,1,18.6,1.3,27.9c0.1,3.3-0.5,6.7-0.8,10.5c-1.7,0-3.1,0-4.5,0c-36.7,0-73.4,0-110.1,0
		c-8.3,0-9.8,1.1-12.2,9c-9.8,32.8-38,56.7-71.6,59.5c-34.4,2.8-66.6-11.9-82.7-42.8c-2.5-4.8-4.4-10-6.2-15.1
		c-3-8.3-6.1-10.6-14.9-10.6c-20.2,0.1-40.3,0-60.5,0.2c-3.8,0-7.7,0.6-11.4,1.5c-4.4,1.1-7.3,4.3-7.2,8.9c0.1,5,0.6,10.2,1.8,15.1
		c16.6,70.2,75.4,124.6,146.9,133.8c46.9,6,92.9,1.1,136.1-19.9C440.5,392.6,442.2,392,443.9,391.2z M380.7,238.9
		c-0.1-29.3-24-53.6-52.5-53.5c-30,0.1-53.8,23.5-53.6,52.9c0.1,30.2,24.4,53.6,55.4,53.4C357.1,291.5,380.8,266.9,380.7,238.9z"/>
	<path class="st0" d="M380.7,238.9c0.1,28-23.6,52.6-50.8,52.8c-31,0.2-55.2-23.2-55.4-53.4c-0.1-29.4,23.6-52.8,53.6-52.9
		C356.8,185.3,380.6,209.6,380.7,238.9z"/>
</g>
</svg>
